<svg width="44" height="44" viewBox="0 0 44 44" fill="none" xmlns="http://www.w3.org/2000/svg">
<g opacity="0.2">
<path d="M22 12.6666C19.9831 10.0996 16.8741 7.53265 9.16885 7.34427C8.66274 7.33191 8.25 7.743 8.25 8.24926C8.25 12.0048 8.25 26.2228 8.25 30.4277C8.25 30.9339 8.66278 31.3316 9.16876 31.3481C16.8741 31.6 19.9831 35.0162 22 37.5832M22 12.6666C24.0168 10.0996 27.1258 7.53265 34.8311 7.34427C35.3373 7.33191 35.75 7.73376 35.75 8.24002C35.75 12.4381 35.75 26.2283 35.75 30.4264C35.75 30.9326 35.3373 31.3316 34.8313 31.3481C27.126 31.6 24.0168 35.0162 22 37.5832M22 12.6666V37.5832" stroke="black" stroke-width="2.33" stroke-linejoin="round"/>
<path d="M35.2647 11H39.4167C39.9228 11 40.3333 11.4104 40.3333 11.9167V35.8215C40.3333 36.5633 39.4594 37.0561 38.7814 36.7548C37.3237 36.1071 34.8911 35.3159 31.7058 35.3159C26.3136 35.3159 22 38.5 22 38.5C22 38.5 17.6863 35.3159 12.2941 35.3159C9.10881 35.3159 6.67618 36.1071 5.21852 36.7548C4.54057 37.0561 3.66666 36.5633 3.66666 35.8215V11.9167C3.66666 11.4104 4.07707 11 4.58332 11H8.73529" stroke="black" stroke-width="2.33" stroke-linejoin="round"/>
</g>
</svg>
