<svg width="38" height="38" viewBox="0 0 38 38" fill="none" xmlns="http://www.w3.org/2000/svg">
<g opacity="0.3">
<path d="M19 29.6875C18.3508 29.6875 17.8125 29.1492 17.8125 28.5V23.75C17.8125 23.1008 18.3508 22.5625 19 22.5625C19.6492 22.5625 20.1875 23.1008 20.1875 23.75V28.5C20.1875 29.1492 19.6492 29.6875 19 29.6875Z" fill="black"/>
<path d="M27.8681 35.7202H10.1348C7.25316 35.7202 4.62482 33.5035 4.14982 30.6693L2.04399 18.0502C1.69566 16.0868 2.66149 13.5693 4.22899 12.3185L15.2015 3.53096C17.3231 1.82096 20.6639 1.83679 22.8014 3.54679L33.7739 12.3185C35.3256 13.5693 36.2756 16.0868 35.9589 18.0502L33.8531 30.6535C33.3781 33.456 30.6864 35.7202 27.8681 35.7202ZM18.9856 4.63929C18.1464 4.63929 17.3073 4.89263 16.6898 5.38346L5.71732 14.1868C4.83066 14.8993 4.19732 16.546 4.38732 17.6702L6.49316 30.2735C6.77816 31.936 8.44066 33.3452 10.1348 33.3452H27.8681C29.5623 33.3452 31.2248 31.936 31.5098 30.2577L33.6156 17.6543C33.7898 16.546 33.1564 14.8676 32.2856 14.171L21.3131 5.39929C20.6798 4.89263 19.8248 4.63929 18.9856 4.63929Z" fill="black"/>
</g>
</svg>
