<svg width="38" height="39" viewBox="0 0 38 39" fill="none" xmlns="http://www.w3.org/2000/svg">
<path d="M22.5625 36.9688H15.4375C14.7883 36.9688 14.25 36.4162 14.25 35.75V6.5C14.25 3.705 15.7542 2.03125 18.2875 2.03125H19.7125C22.2458 2.03125 23.75 3.705 23.75 6.5V35.75C23.75 36.4162 23.2117 36.9688 22.5625 36.9688ZM16.625 34.5312H21.375V6.5C21.375 4.63125 20.52 4.46875 19.7125 4.46875H18.2875C17.48 4.46875 16.625 4.63125 16.625 6.5V34.5312Z" fill="#FBA834"/>
<path d="M34.8333 36.9688H3.16666C2.51749 36.9688 1.97916 36.4162 1.97916 35.75C1.97916 35.0838 2.51749 34.5312 3.16666 34.5312H34.8333C35.4825 34.5312 36.0208 35.0838 36.0208 35.75C36.0208 36.4162 35.4825 36.9688 34.8333 36.9688Z" fill="black"/>
<path d="M11.0833 36.9688H4.75C4.10083 36.9688 3.5625 36.4163 3.5625 35.75V16.25C3.5625 13.455 4.95583 11.7812 7.28333 11.7812H8.55C10.8775 11.7812 12.2708 13.455 12.2708 16.25V35.75C12.2708 36.4163 11.7325 36.9688 11.0833 36.9688ZM5.9375 34.5312H9.89583V16.25C9.89583 14.2188 9.025 14.2188 8.55 14.2188H7.28333C6.80833 14.2188 5.9375 14.2188 5.9375 16.25V34.5312Z" fill="black"/>
<path d="M33.25 36.9688H26.9167C26.2675 36.9688 25.7292 36.4163 25.7292 35.75V24.375C25.7292 21.58 27.1225 19.9062 29.45 19.9062H30.7167C33.0442 19.9062 34.4375 21.58 34.4375 24.375V35.75C34.4375 36.4163 33.8992 36.9688 33.25 36.9688ZM28.1042 34.5312H32.0625V24.375C32.0625 22.3438 31.1917 22.3438 30.7167 22.3438H29.45C28.975 22.3438 28.1042 22.3438 28.1042 24.375V34.5312Z" fill="black"/>
</svg>
