<svg width="40" height="41" viewBox="0 0 40 41" fill="none" xmlns="http://www.w3.org/2000/svg">
<path d="M20 26.9062C16.55 26.9062 13.75 24.0363 13.75 20.5C13.75 16.9638 16.55 14.0938 20 14.0938C23.45 14.0938 26.25 16.9638 26.25 20.5C26.25 24.0363 23.45 26.9062 20 26.9062ZM20 16.6562C17.9333 16.6562 16.25 18.3817 16.25 20.5C16.25 22.6183 17.9333 24.3438 20 24.3438C22.0667 24.3438 23.75 22.6183 23.75 20.5C23.75 18.3817 22.0667 16.6562 20 16.6562Z" fill="#FBA834"/>
<path d="M25.35 37.9078C25 37.9078 24.65 37.8565 24.3 37.7711C23.2667 37.4807 22.4 36.8144 21.85 35.8748L21.65 35.5332C20.6667 33.7907 19.3167 33.7907 18.3333 35.5332L18.15 35.8578C17.6 36.8144 16.7333 37.4978 15.7 37.7711C14.65 38.0615 13.5667 37.9078 12.65 37.344L9.78334 35.6528C8.76668 35.0548 8.03334 34.0811 7.71668 32.9023C7.41668 31.7236 7.56668 30.5107 8.15001 29.4686C8.63334 28.5973 8.76668 27.8115 8.48334 27.3161C8.20001 26.8207 7.48334 26.5303 6.50001 26.5303C4.06668 26.5303 2.08334 24.4973 2.08334 22.0032V18.9965C2.08334 16.5023 4.06668 14.4694 6.50001 14.4694C7.48334 14.4694 8.20001 14.179 8.48334 13.6836C8.76668 13.1882 8.65001 12.4023 8.15001 11.5311C7.56668 10.489 7.41668 9.25901 7.71668 8.09734C8.01668 6.91859 8.75001 5.94484 9.78334 5.34692L12.6667 3.65567C14.55 2.51109 17.0333 3.17734 18.1667 5.14192L18.3667 5.48359C19.35 7.22609 20.7 7.22609 21.6833 5.48359L21.8667 5.159C23 3.17734 25.4833 2.51109 27.3833 3.67276L30.25 5.36401C31.2667 5.96192 32 6.93567 32.3167 8.11442C32.6167 9.29317 32.4667 10.5061 31.8833 11.5482C31.4 12.4194 31.2667 13.2053 31.55 13.7007C31.8333 14.1961 32.55 14.4865 33.5333 14.4865C35.9667 14.4865 37.95 16.5194 37.95 19.0136V22.0203C37.95 24.5144 35.9667 26.5473 33.5333 26.5473C32.55 26.5473 31.8333 26.8378 31.55 27.3332C31.2667 27.8286 31.3833 28.6144 31.8833 29.4857C32.4667 30.5278 32.6333 31.7578 32.3167 32.9194C32.0167 34.0982 31.2833 35.0719 30.25 35.6698L27.3667 37.3611C26.7333 37.7198 26.05 37.9078 25.35 37.9078ZM20 31.5869C21.4833 31.5869 22.8667 32.5436 23.8167 34.2348L24 34.5594C24.2 34.9182 24.5333 35.1744 24.9333 35.2769C25.3333 35.3794 25.7333 35.3282 26.0667 35.1232L28.95 33.4148C29.3833 33.1586 29.7167 32.7315 29.85 32.219C29.9833 31.7065 29.9167 31.1769 29.6667 30.7328C28.7167 29.0586 28.6 27.3332 29.3333 26.0178C30.0667 24.7023 31.5833 23.9507 33.4833 23.9507C34.55 23.9507 35.4 23.0794 35.4 21.9861V18.9794C35.4 17.9032 34.55 17.0148 33.4833 17.0148C31.5833 17.0148 30.0667 16.2632 29.3333 14.9478C28.6 13.6323 28.7167 11.9069 29.6667 10.2328C29.9167 9.78859 29.9833 9.25901 29.85 8.74651C29.7167 8.234 29.4 7.824 28.9667 7.55067L26.0833 5.85942C25.3667 5.41526 24.4167 5.6715 23.9833 6.42317L23.8 6.74776C22.85 8.439 21.4667 9.39567 19.9833 9.39567C18.5 9.39567 17.1167 8.439 16.1667 6.74776L15.9833 6.40609C15.5667 5.68859 14.6333 5.43234 13.9167 5.85942L11.0333 7.56776C10.6 7.82401 10.2667 8.25109 10.1333 8.76359C10 9.27609 10.0667 9.80567 10.3167 10.2498C11.2667 11.924 11.3833 13.6494 10.65 14.9648C9.91668 16.2803 8.40001 17.0319 6.50001 17.0319C5.43334 17.0319 4.58334 17.9032 4.58334 18.9965V22.0032C4.58334 23.0794 5.43334 23.9678 6.50001 23.9678C8.40001 23.9678 9.91668 24.7194 10.65 26.0348C11.3833 27.3503 11.2667 29.0757 10.3167 30.7498C10.0667 31.194 10 31.7236 10.1333 32.2361C10.2667 32.7486 10.5833 33.1586 11.0167 33.4319L13.9 35.1232C14.25 35.3453 14.6667 35.3965 15.05 35.294C15.45 35.1915 15.7833 34.9182 16 34.5594L16.1833 34.2348C17.1333 32.5607 18.5167 31.5869 20 31.5869Z" fill="black"/>
</svg>
