<svg width="40" height="41" viewBox="0 0 40 41" fill="none" xmlns="http://www.w3.org/2000/svg">
<g opacity="0.2">
<path d="M20 26.9062C16.55 26.9062 13.75 24.0363 13.75 20.5C13.75 16.9638 16.55 14.0938 20 14.0938C23.45 14.0938 26.25 16.9638 26.25 20.5C26.25 24.0363 23.45 26.9062 20 26.9062ZM20 16.6562C17.9333 16.6562 16.25 18.3817 16.25 20.5C16.25 22.6183 17.9333 24.3438 20 24.3438C22.0667 24.3438 23.75 22.6183 23.75 20.5C23.75 18.3817 22.0667 16.6562 20 16.6562Z" fill="black"/>
<path d="M25.35 37.9075C25 37.9075 24.65 37.8563 24.3 37.7708C23.2667 37.4804 22.4 36.8142 21.85 35.8746L21.65 35.5329C20.6667 33.7904 19.3167 33.7904 18.3333 35.5329L18.15 35.8575C17.6 36.8142 16.7333 37.4975 15.7 37.7708C14.65 38.0613 13.5667 37.9075 12.65 37.3438L9.78333 35.6525C8.76666 35.0546 8.03333 34.0808 7.71666 32.9021C7.41666 31.7233 7.56666 30.5104 8.14999 29.4683C8.63333 28.5971 8.76666 27.8113 8.48333 27.3158C8.2 26.8204 7.48333 26.53 6.5 26.53C4.06666 26.53 2.08333 24.4971 2.08333 22.0029V18.9963C2.08333 16.5021 4.06666 14.4692 6.5 14.4692C7.48333 14.4692 8.2 14.1788 8.48333 13.6833C8.76666 13.1879 8.64999 12.4021 8.14999 11.5308C7.56666 10.4888 7.41666 9.25876 7.71666 8.09709C8.01666 6.91834 8.75 5.94459 9.78333 5.34668L12.6667 3.65543C14.55 2.51084 17.0333 3.17709 18.1667 5.14168L18.3667 5.48334C19.35 7.22584 20.7 7.22584 21.6833 5.48334L21.8667 5.15876C23 3.17709 25.4833 2.51084 27.3833 3.67251L30.25 5.36376C31.2667 5.96168 32 6.93543 32.3167 8.11418C32.6167 9.29293 32.4667 10.5058 31.8833 11.5479C31.4 12.4192 31.2667 13.205 31.55 13.7004C31.8333 14.1958 32.55 14.4863 33.5333 14.4863C35.9667 14.4863 37.95 16.5192 37.95 19.0133V22.02C37.95 24.5142 35.9667 26.5471 33.5333 26.5471C32.55 26.5471 31.8333 26.8375 31.55 27.3329C31.2667 27.8283 31.3833 28.6142 31.8833 29.4854C32.4667 30.5275 32.6333 31.7575 32.3167 32.9192C32.0167 34.0979 31.2833 35.0717 30.25 35.6696L27.3667 37.3608C26.7333 37.7196 26.05 37.9075 25.35 37.9075ZM20 31.5867C21.4833 31.5867 22.8667 32.5433 23.8167 34.2346L24 34.5592C24.2 34.9179 24.5333 35.1742 24.9333 35.2767C25.3333 35.3792 25.7333 35.3279 26.0667 35.1229L28.95 33.4146C29.3833 33.1583 29.7167 32.7313 29.85 32.2188C29.9833 31.7063 29.9167 31.1767 29.6667 30.7325C28.7167 29.0583 28.6 27.3329 29.3333 26.0175C30.0667 24.7021 31.5833 23.9504 33.4833 23.9504C34.55 23.9504 35.4 23.0792 35.4 21.9858V18.9792C35.4 17.9029 34.55 17.0146 33.4833 17.0146C31.5833 17.0146 30.0667 16.2629 29.3333 14.9475C28.6 13.6321 28.7167 11.9067 29.6667 10.2325C29.9167 9.78834 29.9833 9.25876 29.85 8.74626C29.7167 8.23376 29.4 7.82376 28.9667 7.55043L26.0833 5.85918C25.3667 5.41501 24.4167 5.67126 23.9833 6.42293L23.8 6.74751C22.85 8.43876 21.4667 9.39543 19.9833 9.39543C18.5 9.39543 17.1167 8.43876 16.1667 6.74751L15.9833 6.40584C15.5667 5.68834 14.6333 5.43209 13.9167 5.85918L11.0333 7.56751C10.6 7.82376 10.2667 8.25084 10.1333 8.76334C10 9.27584 10.0667 9.80543 10.3167 10.2496C11.2667 11.9238 11.3833 13.6492 10.65 14.9646C9.91666 16.28 8.4 17.0317 6.5 17.0317C5.43333 17.0317 4.58333 17.9029 4.58333 18.9963V22.0029C4.58333 23.0792 5.43333 23.9675 6.5 23.9675C8.4 23.9675 9.91666 24.7192 10.65 26.0346C11.3833 27.35 11.2667 29.0754 10.3167 30.7496C10.0667 31.1938 10 31.7233 10.1333 32.2358C10.2667 32.7483 10.5833 33.1583 11.0167 33.4317L13.9 35.1229C14.25 35.345 14.6667 35.3963 15.05 35.2938C15.45 35.1913 15.7833 34.9179 16 34.5592L16.1833 34.2346C17.1333 32.5604 18.5167 31.5867 20 31.5867Z" fill="black"/>
</g>
</svg>
